<svg width="19.647583" height="19.609619" viewBox="0 0 19.6476 19.6096" fill="none" xmlns="http://www.w3.org/2000/svg" xmlns:xlink="http://www.w3.org/1999/xlink">
	<desc>
			Created with Pixso.
	</desc>
	<defs>
		<clipPath id="clip1_104">
			<rect id="double-arrow_1761657 1" rx="0.000000" width="12.533244" height="13.245520" transform="translate(10.945709 0.500000) rotate(47.160622)" fill="#929ea4" fill-opacity="0"/>
		</clipPath>
	</defs>
	<rect id="double-arrow_1761657 1" rx="0.000000" width="12.533244" height="13.245520" transform="translate(10.945709 0.500000) rotate(47.160622)" fill="#929ea4" fill-opacity="0"/>
	<g clip-path="url(#clip1_104)">
		<path id="path4488" d="M8.26 12.83C8.56 12.84 8.8 13.09 8.79 13.4C8.77 13.71 8.51 13.95 8.2 13.94L6.07 13.9C5.92 13.89 5.78 13.83 5.69 13.72C5.59 13.62 5.54 13.48 5.54 13.33L5.66 11.2C5.67 10.9 5.94 10.65 6.24 10.66C6.55 10.67 6.79 10.92 6.77 11.23L6.73 12L12.25 6.89L11.47 6.87C11.17 6.86 10.93 6.61 10.94 6.3C10.96 5.99 11.22 5.75 11.53 5.75L13.66 5.8C13.97 5.81 14.2 6.07 14.19 6.37L14.07 8.5C14.06 8.8 13.79 9.05 13.49 9.04C13.33 9.04 13.2 8.97 13.1 8.87C13 8.76 12.95 8.62 12.96 8.47L13 7.7L7.48 12.81L8.26 12.83Z" fill="#929ea4" fill-opacity="1.000000" fill-rule="nonzero"/>
	</g>
</svg>
